<svg width="24" height="24" viewBox="0 0 24 24" fill="none" xmlns="http://www.w3.org/2000/svg">
<rect width="24" height="24" fill="#E5E5E5"/>
<path d="M-2150 -1062C-2150 -1063.1 -2149.1 -1064 -2148 -1064H2676C2677.1 -1064 2678 -1063.1 2678 -1062V18243C2678 18244.1 2677.1 18245 2676 18245H-2148C-2149.1 18245 -2150 18244.1 -2150 18243V-1062Z" fill="#CDCDCD"/>
<rect width="1200" height="1148" transform="translate(-50 -964)" fill="white"/>
<rect width="24" height="24" rx="12" fill="#F5F5F5"/>
<path d="M14.2727 8C13.2727 8 12.5455 8.52308 12 9.08974C11.4545 8.56667 10.7273 8 9.72727 8C8.13636 8 7 9.2641 7 10.8333C7 11.6179 7.31818 12.3154 7.90909 12.7949L12 16.5L16.0909 12.7949C16.6364 12.2718 17 11.6179 17 10.8333C17 9.2641 15.8636 8 14.2727 8Z" fill="white"/>
<path d="M-2148 -1063H2676V-1065H-2148V-1063ZM2677 -1062V18243H2679V-1062H2677ZM2676 18244H-2148V18246H2676V18244ZM-2149 18243V-1062H-2151V18243H-2149ZM-2148 18244C-2148.55 18244 -2149 18243.6 -2149 18243H-2151C-2151 18244.7 -2149.66 18246 -2148 18246V18244ZM2677 18243C2677 18243.6 2676.55 18244 2676 18244V18246C2677.66 18246 2679 18244.7 2679 18243H2677ZM2676 -1063C2676.55 -1063 2677 -1062.55 2677 -1062H2679C2679 -1063.66 2677.66 -1065 2676 -1065V-1063ZM-2148 -1065C-2149.66 -1065 -2151 -1063.66 -2151 -1062H-2149C-2149 -1062.55 -2148.55 -1063 -2148 -1063V-1065Z" fill="black" fill-opacity="0.1"/>
</svg>
